<mxfile host="65bd71144e">
    <diagram id="HIP3nbAZw_EuaXWnEj3U" name="Page-1">
        <mxGraphModel dx="532" dy="431" grid="1" gridSize="10" guides="1" tooltips="1" connect="1" arrows="1" fold="1" page="1" pageScale="1" pageWidth="850" pageHeight="1100" math="0" shadow="0">
            <root>
                <mxCell id="0"/>
                <mxCell id="1" parent="0"/>
                <mxCell id="8" value="http://ics2o.mths.ca" style="swimlane;whiteSpace=wrap;html=1;startSize=20;fillColor=#CCE5FF;" parent="1" vertex="1">
                    <mxGeometry x="45" y="390" width="760" height="420" as="geometry"/>
                </mxCell>
                <mxCell id="9" value="" style="whiteSpace=wrap;html=1;fillColor=#FFFFFF;" parent="8" vertex="1">
                    <mxGeometry y="20" width="760" height="40" as="geometry"/>
                </mxCell>
                <mxCell id="10" value="&lt;h1&gt;&lt;font color=&quot;#cce5ff&quot;&gt;&amp;nbsp;Loop&lt;/font&gt;&lt;/h1&gt;" style="text;html=1;align=center;verticalAlign=middle;resizable=0;points=[];autosize=1;strokeColor=none;fillColor=none;" parent="8" vertex="1">
                    <mxGeometry x="320" y="5" width="90" height="70" as="geometry"/>
                </mxCell>
                <mxCell id="11" value="&lt;b&gt;Number&lt;/b&gt;" style="text;strokeColor=none;align=center;fillColor=none;html=1;verticalAlign=middle;whiteSpace=wrap;rounded=0;labelBackgroundColor=none;fontFamily=Times New Roman;fontColor=#CCE5FF;" parent="8" vertex="1">
                    <mxGeometry y="135" width="60" height="30" as="geometry"/>
                </mxCell>
                <mxCell id="12" value="1" style="shape=partialRectangle;whiteSpace=wrap;html=1;top=0;left=0;fillColor=none;labelBackgroundColor=none;fontFamily=Times New Roman;fontColor=#CCE5FF;" parent="8" vertex="1">
                    <mxGeometry x="60" y="140" width="100" height="20" as="geometry"/>
                </mxCell>
                <mxCell id="13" value="&lt;b&gt;&lt;br&gt;&lt;font color=&quot;#0a58f5&quot;&gt;Calculate&lt;/font&gt;&lt;br&gt;&lt;/b&gt;" style="labelPosition=center;verticalLabelPosition=middle;align=center;html=1;shape=mxgraph.basic.shaded_button;dx=10;fillColor=#E6E6E6;strokeColor=none;whiteSpace=wrap;labelBackgroundColor=none;fontFamily=Times New Roman;fontColor=#CCE5FF;" parent="8" vertex="1">
                    <mxGeometry x="50" y="220" width="80" height="50" as="geometry"/>
                </mxCell>
                <mxCell id="14" value="&lt;h3&gt;The sum of all numbers from 1 to 2 is 3&lt;/h3&gt;" style="text;strokeColor=none;align=center;fillColor=none;html=1;verticalAlign=middle;whiteSpace=wrap;rounded=0;labelBackgroundColor=none;fontFamily=Times New Roman;fontColor=#0A58F5;" parent="8" vertex="1">
                    <mxGeometry x="-5" y="290" width="280" height="30" as="geometry"/>
                </mxCell>
                <mxCell id="18" value="" style="shape=image;imageAspect=0;aspect=fixed;verticalLabelPosition=bottom;verticalAlign=top;image=data:image/webp,UklGRqAVAABXRUJQVlA4TJMVAAAv08P0EPdmIJKM6x9FzMcRYU4mXCGAAChozKZtQ/ZU6RlALSiBwBWlDI7SHrCLAg+cqdrVTfC2yAFxLoBNmw6dBgcj4m04nvEPqBzFbds40v5jJ7levhExAVzdRiwznxgIxEDGAd3sGa17/ECap90S4wDg8pTUOr/fzCBMQKA4Csh2eS1cc2txq4iSqAu3697mjruRJbmFFlbQ/vQG6eOWXXyaLaCS4d5yEZcQUQeUbWDOP+MOM79z7vne8n3fRPR/AqDVtq1qcQhEBUpQgQDuPejgVoRKV94vfJ5ziOh/iH9PW9EJ6WPzZha/Vblz36GTzRf817plJBIh9l9oxkP7dla+VTwzb2x6QrQlQLQd4xv9zPzST2t/+v1Ce1cgKO8wB7Cdfv+p9tPS+c+M9sXYgMnCURPnrq+uP+3vlQOY/aexev3ciaNiCB7ZcfcXrq0+3NItBynh4eq1hffHMRyyvNlF67/5rSMoBznTb7i+KNtrASB72OQVX568GpQhkgm/XDE5yQY9ruRpG79r6ZMhFlu+20jsAjr2iPyyA1eCMiTzFSrLRxvexE8t/fGKDOn8I1I8qPHct3h3S1CGfMbddJ8Hytybt+1ErwyTfALzCMDYaa/sbpNhFXe/Qgxb3A+uOdglwy4yPeiGK1HjN5/si4RlPEnjGaYMeay8KSjDNjeV0xB4EvXIe2eCMqwz0iNRsMT90JbTQRn2+TSSG45YWW+cCkYcIeMbWQREhi9qCEjHGGhAhiDe52o7paPsZCToYY+puCgd58UKtkFH0tLjQelA+TgS3PA8+Y+uiEPFmic8QGPk683SwTYjQQz3U7U90tFyLSG4SFp1JuJ4cRXBCnvCf3VLB0y7JtiAwvvS8WDEEfNx8oKJ1K2XpWOmrakwwnq0NiAddICRAMSQWSekwz5BDB4S17ZKx82UCBwyP+mSDhw/yQQNE/b2S0dOyHDBNe1n6diZXEAham6TdPCMUSDhnuUXIo6eljNAiF/nlw7fvw7BwbB3OqXjv0YIDHwf9kgFZPKBgpTPeqUSMqUAAt7RF1FE3MFggLEvooy4g4EAb++LKCRuZxDg+zgglTLwsQ8AJL7fKxWT3080/mLf7pLKiRxr+EWXXJUKSiXRRp978WWppLQYDT5r+nmpqOenk7mXe0oqK5KxN7pOKmw9GXopNRGlRTbyYssDahMojzXw3MuuSsUldJt3BWel8lKBcffnQ1KBGQ27YVVSiavQqIsq6VEjLoky6Z4/LxX5PBl02XVSmevYmIutDKoTY6whZ73aLhUaXyUzbszRiFIjG3Hx/ykV+3M04Kz5HapFbJlvOY1SuRtzjDdvRVC9uIJMt7+1SQXHFwy3Ufulkn+LRptrTa+aMblMtvG/SEWn8Qab98OIsn/kNdeebVU3ftZYS6yRCo+JptqcDpWjOYZa8rdS6TnZTFvUpXa4yEhLq5OKX0cmWnGP6nGxgZZWL5UfyTxb0qN+vMQ4S/4+ogGJTbOXO3VAJxtmQ/dILbgHzbJCvx7wFxpl3h1SEyKZZJPO6QKeZJC5NkttSC5zLKtRHzSiObagRx/wAmMs/iupERlNsaktOgHJELM3SK24gc2w1IN6gVPNsL926AVCI8xTITVjBZlgmUd0w5FME2xGp264hgaYpzKiHZHMr4xG/dCYYX4VdegHKjK+7K1SQxKbXr4fdAT5TK8prTqC0fRa0a8jiA2vmCqpJavQ7Mo6picIza58v57ws9n1mtSUbHR5d+oK8ppcGUd1BWaYXLltugLJ5FrSpyuQDS73BxFtyWhuJezTF8Tm1n2/6gtGc+vpy/qCnja3Fgb0RWChsWVvkRqzjE0t7y6dwWRq+Q7oDPKZWjlNOoNzTK3cSzoDydSa3a0ziE2tlUGdwSsNLde7Umuyy8yK/kJvcLSZFb9Xb2C8mTWyQW80kJmVfUpvIJtZ487qDUIz6/E2vYFsZhW06w0sMLNmdOkNnGFmzQvojQCZWUv79QahmbU6ojnJyLLe1B1MRtYm3YFGll2mO8rYxHKX645yNLK26Q78f//xn//85z//+c9//vOf//znP//5z3/+85///Oc///nPf/7zn//85z//+c9//vOf//znP//5z3/+85///Oc////ff/z/3WoRo0q6hrynO4hdqJK2RfogEh0/Mnvc4wUz5i1d/eamsvJtKvleo+5oJFTJ8rJNvHrpvBkFj4/LHhkf7VI02zsiJ3f2yne/2Ntw6mxbe1egPyiNb6YAtredPdWw94t3V87OzfF5bYVyJ9z39MKyXQeaLnUHpbHOhE0HdpUtfPq+BLfyWN6M3CUf7Pv1ckAa8gHifR8syc3wWsoSk5X/2s6jl/qkcY+XjhLnZ8Woh2v4lOXVx/xBaeyzn3D5lOEuhfBkFG39obVfGv/EP2wtyvAogSdzxoeNVyUYpMbKGZkeh2enFFUc7ZTAsPNIRRHbzi1+6oaDHRIkEm+Yio7MlbXgq5agBIuMXy3Icjkt78TNR3okcOQjNNHrpIYW/v1cUAJIPkeF6JCs5Jf3+CWY9O/hZHI+VtqS7zslqOwkTrOcjZVWXN8jwSVjMVkOJnlRXY8EmVyHI53K0DnfdkmwiTwn0Yl4n63pkKCTkL1Owz3uo9YI+OSP0O0oRq35JRgBoExr0Dnc88L+HglEeT/d4wysnIo2CUixIoccQPy8xn4JSqlxHoY7e8znHRKcEo+xw1rsq0eDEqAyvhobxrI/9Eug6icOV1HP1/VLsEp1z3NYGlbyhwStf5RgGMqp6pbAlapywo2n4FBQglc+VEBhJXbZWQliCWPDSEp5hwSyVM5hY3RNnwSzWEPhwcqtD0YALSNZYcAz/RcJbGm6J+TFLD4vwe15whAXV3JZAlwqiQtpiW9flSCXODGE+d7vkkAX2Reykj/ulWCXP04OUanbAxLwBjA1JEV2BCToDWBqCErZHpDAN4AcckZ81ifBL9KIEDPsw94IAObKoSEl/p2eCAjufgdDiHddpwTCnesoZEQt90sw7CcOEa4XWyUgZnKFhmn/kqCYpoWECT9HgPHhCSEgc68Ex5g56BI/6YdH9EniIBuytlsCZFrLg8qafVGC5ItMg+mx4xIoMw2i1FoJljl10Hi39sEl3OIdJNbLlyOAmdgaHBOORUAz8aBI2hUBzkyDwL2qGzoRugfeU80SPDfTgEuulQCakwcYvt4LoRjdA+vJZgmim58YUEn/kEC6JmkA2Uu7oBQu5eXGHI+AaR6zmLdCAuqKXOq5VkjFsdDwf0ZAddYyizph1Xss8qcGCaxvcwHXG33QKmp9fswpCa6jpj1bgvCqImcfaZIAu3Ymh7wnQXbW3GNnYFbkVFS5BNqXNTO+CWpVTrg3R8B2xviDJ+FW1PiafriV+8NpByOAu3L0lS7IFXuD934tQXflWF4b7Ioa8myLAO/IkftOQK+3GFncC70qB+7dLcH3TfantsCvyK5VGgHgkb0RP0Kwil7+FQhWux1XmQThJ+vt5HoYFtWedgWGVTbtjRKIH1QraT8U20+3MvkCFGuZfCsr+qEY8S14v4yAcfLeLPskHEO+WVEHHKOim9jrJSBn+0Zx30AyjLvR/b9Bst/wRoUdkIwKb2CtlaCcrOtiqmEZxlw36jAsI7xuYgssQ75ubjcsIxRE1voIMGcSFFMNzTCGyFcPzdBHNPo0NGMS9IwfmvmRaH4vNOP5ZJVGwDlS9KfwDKMTauEZJ6T/BM+Qx/4Oz3Bs3gV4RjyzHZ7hzOIueIbFbwXgWYAqg/CMcWcEoNM+iEaHIBqfhGjYDNGaL0A08kM0/zWIxt0QjSL/73SCaMQQjf0QzX8BolEzRGtGiIaHIBrvg2i0E6JRZRCeMb4VgGeB0uIueIbFM9vhGc7MuwDPiMf+Ds9wbPpP8Aw5oRaecUL0p/AMo61SeIYk5vdCM55P9IwfmvmRaPRpaMYkyFcPzdBHFFMNzTCGyFoPzZgE0dxuWEYoiGhiCyxDvm7UYVhGeF1MNSxD73XWWlhG1nVU2AHJ6C/ihvf/Bsl+wxvFfQPJMO5G9npIxvaNqKgDjlGRuGn2STiGfDPvl3CMvDejFf1QjFjc4uQWKIaTbyVpPxTbP+xW7I1QbCPfCk27AsOYxC0n18Mw5FtzlcGwMtetUf4VCMb5dJsjfoRgjLdjlUIwpNuhqS3wC0nc9r274dduuj1a3Au9mMQdvO8E9DqBd8KzDXoh3QnKa4NdyHRH7/0adjHdGXqlC3LhK3SH0w5CLqY7RWv64RatFnf8wZNwCx+4c+7NcItcd47GN0EtJnEXo8qhVjnfDXrsDMxCEnd1yHswaxvfHXqkCWLxI3SXPVuC8IqR7haNOQWvkOmuu97og1bIrrtHf2qAVg0kBuKiTljViTQgh/8TVhEPDHquFVIx0gD1VkCqChooNOY4nDr2kBiw9tIuKIVLeeBQUg2UQhID+YlmGNX8BA1o9+u9EIrRPbAouRZCcTIN9Kea4VMziQGPq7qhE6F74FHSLujEJAbjhGOwiVgMSuvly5CJ2Boc5N3aB5dwi1cM1lG1cIlTafA+dhwqMYlBbM2+CJMuMg0mGrK2GyLRWhaDO/GTfnhEnySKwZ65Fx79dyYN/gmHodHPE0QonPYvWETTREh0vdgKiZhcoYGilvvhkJ9YhErvuk4o1LmOROiMf6cbBtE7KELp0MpeCMQ4lELriM/64A/SCBFqU7YHoE8AmUJv6o4A7AlgKoXiyPYA5AlgKoXm5I974Q5/nEyh2vd+F9RB9lHoTnz7KswhThShPK7kMsShkjgR2mMWn4c35wlFqPdM/wXa0HSPCP1Wbn0Q0jCSJcLi6Jo+OIM1JMJlSnkHlKFyFuEzdtlZGEMYK8Kpp+BQEL7woQISYTanqhu6UFWOCL/DSv6ALX+UIIXjqOfr+uEK1T3PIkxnf+iHKn5iEb5jXz0ahCiMr8ZSOLfHfN4BT+izMbYI83HzGvthCTXOixPh38qpaIMkWJFDwhHe88L+HijC++ke4RhHrfklCEGY1qBwku5xH7XCD/4I3eQwvc/WdMAOQvYKB5o459suuIE8J5Ec6shFdT0wg+uQhHO10orrGV4wFpMlHK2VtuT7TljRSYvTLOF4reSX9/jhhH8PJ5NwxkML/34uCCH4HBWicNDeiZuP9EAHPkITvcJhu7IWfNUShAuMXy3IcpETj5+64WAHTCDeMBWFY7dTiiqOXIMGfKSiKMUmZ+/JnF7ZeBUOUCNOz/QIFfRkFG39obXf/CP+YWtRhkeoo2v41OVVx/xBc4/9VLV86nCXUM6YrPzXdh691Gfe4aWjxPlZMUJVLW9G7pIP9v16OWDKBYj3fbAkN8NrCdV1J9yXt7Bs14GmS91Bc40Jmw7sKluYd1+CW6iz7fXl5M5e+e4XextOnW1r7wr0B80vpgC2t5091bD3i3dXzs7N8Xltoeau6PiR2eMeL5gxb+nqNzeVlW9TyevHj04joUqWl23i1UvnzSh4fFz2yPhol9CGFtlulfzfvv7oELtQJW2LxL/D4+qjg24ysPnPf/7zn//85z//+c9//vOf//znP//5z3/+85///Oc///nPf/7zn//85z//+c9//vOf//znP//5z3/+85///Oc//3/wluuOciOLy3RHGZtY1ibdgWRkvak72Mii1bqDhJG9tF9vEJpZ8wJ6I0Bm1owuvYEzzKyCdr2BBWbW4216A9nMGndWbxCaWdmn9AaymTWyQW80kJkVv1dvYLyZFf2F3uBoM8v1rt5gl5lFK4M6g1eSoT27W2cQm1q5l3QGkqmV06QzOMfU8h3QGeQztby7dAaTqWWX6YwyNrVoYUBfBBaSsf30ZX1BeebWfb/qC0ZzK2GfviA2t9wf6AtGc4uW9OkKZDK4c9t0BZLJlXFUV2CGyeXdqSvIa3LRa7qCyejO9+sJP5tdWcf0BKHZFVOlJ6rQ7KIV/TqClgvDe0qrjmA0vXw/6AjymV72Vh1BbHpRUYd+oCJhfGc06ofGDPPLU6kfkMwvmnFNN/B0MsAzj+iGIxkmmKdCN1SQCUZ/7dALhMIITz2oFzjVDLM36IUNbIbR1BadgCQM8fivdAKjKUYLevQBLyBjPKtRHzSiOebarA/IZY7RpHO6gCeRQe7doQuQTDIq9OsBfyEZ5UP36IE9aJbRy506oJPJME/+XgcQm2a0pEf9eAkZ52n16odknlFxj+pxMRnoaXWqV0cmGi3qUjtcREZ68rdqx8lmGs3pUDmaIwz1xBqVw0RTjZ5tVTd+lox170fqxmSu0fhfVI3GC4PdtaZXzZhcJhuN2q9m3yKZ7X9rUzF8QRju3oqgenEFmW6U06hejTlkvFvzO1SL2DLfKP5z1WIkE37MUbVCJiPeerVdpfBVMuMotjKoToyxZMpn16lT3X+QOf/8eVU6T8KgjyrpUaPukiiTjoZVqVEVkln/50MqxEimfcFZ9aECYdy7l11VHUK3eUex5QG1CZTHkomfUqM2yGTmj65XmToSpn7uKXXBJ4Wxb00/ryrnp5O5R+7Fl9WEFqMw+aNLrqoIlUQLsz/27S71QI4l0z/x/V7V4PcTyfz3fRxQi8DHPoKAKdv7VAK3M8FA3tGnDriDCQoy9qkC7mCCg/xZrxowpQhI6KvsUQFGH8HCoe9cc35MKKBh/Dq/0/OvQ4KH9yy/4OxoOQuIGDW3ycnxi1ECJrqm/ezcmFwCLE7Y2+/MCFlAxsxPupxY9yeZAjYmrm11XkyJAjoOmXXCaZ0gFvDRerQ24KQCjCRAZOrWy86JtqYKKOl96XjQGfFx8go4aU/Y1e2EiCfYAlQmrTrjfHAVCWjpfqq2x9lwLaEAmCNfb3YyzUgCZnqeqOlyKljzBAmwmbT0eNCJ8DFMEpDTHlNx0XlcrHjIFsDT+1xtp7PoZCQBQIcvagg4h0ADMsFQK+uNU0FnwPhGFgkw6n5oy+lg+OMmJLcApVGPvHcmGN4Ytz0cJcDpkMfKm4Lhi5vKaYgAqVHjN5/sC094ksazAKvuB1Yf7Ao/yGsecAvQaqe98nVbeEF+hWwBX+/N23aiN1zwCcwjAWQ99y3e3RIMfYy76T6PgLTxU0t/vBLa+EekeAFu7RH5ZQeuBEMTX6GyfLQFzHUlT9v4XUtfqMGW7zYSuwTktZMmr/jy5NVgqGDCL1dMTrIF/LW82UXrv/mtIzjYmH7D9UXZXkuAYTvu/r+srT7c0j1YCA9Xr+X742wBjq2YURPnrq+uP+3vHUjsP43V6+dOHBVDAi7b6Bv9zPzST2t/+v1Ce1cgeKc4gO30+0+1n5bOf2a0L8YWINqKTkgfmzezuLRy575DJ5sv+K91X0fsv9CMh/btrCwtnpk3Nj0h2hL/ngYA;" parent="8" vertex="1">
                    <mxGeometry x="470" y="70" width="270" height="270" as="geometry"/>
                </mxCell>
            </root>
        </mxGraphModel>
    </diagram>
</mxfile>